<?xml version="1.0" standalone="no"?>
 <!DOCTYPE svg PUBLIC "-//W3C//DTD SVG 1.1//EN"
 "http://www.w3.org/Graphics/SVG/1.1/DTD/svg11.dtd">
<svg
  xmlns:svg="http://www.w3.org/2000/svg"
  xmlns="http://www.w3.org/2000/svg"
  xmlns:xlink="http://www.w3.org/1999/xlink"
  version="1.1"
  width="29.700220cm" height="21.000720cm" viewBox="33000 39000 250000 128000">
<title>SVG Picture created as humla-base-plate-Edge_Cuts.svg date 2023/01/18 20:18:34 </title>
  <path d="
M80917 118359 A519 519 0.0 0 0 81328 118867
L116507 126986
A17659 17659 0.0 0 0 120443 127431
L156443 127431
A17659 17659 0.0 0 0 160379 126986
L195550 118867
A519 519 0.0 0 0 195961 118359
L195945 102484
A483 483 0.0 0 0 196279 102046
L243160 91225
A480 480 0.0 0 0 243545 90666
L231897 40195
A1000 1000 0.0 0 0 230930 39448
L205668 39414
A17659 17659 0.0 0 0 201732 39860
L174240 46206
A6302 6302 0.0 0 0 172329 46225
L115650 33139
A480 480 0.0 0 0 115060 33472
L111754 47835
A480 480 0.0 0 0 111164 48168
L75150 39854
A17659 17659 0.0 0 0 72507 39456
L45951 39446
A1000 1000 0.0 0 0 44983 40192
L33336 90622
A480 480 0.0 0 0 33669 91212
L80587 102046
A483 483 0.0 0 0 80921 102484
L80921 118359
Z
"     fill="black"
    stroke="yellow" stroke-width="100"/>
</svg>
