<?xml version="1.0" standalone="no"?>
<!DOCTYPE svg PUBLIC "-//W3C//DTD SVG 1.1//EN" "http://www.w3.org/Graphics/SVG/1.1/DTD/svg11.dtd">
<svg width="179mm" height="124mm" viewBox="6 10 179 124" xmlns="http://www.w3.org/2000/svg" version="1.1">
<title>OpenSCAD Model</title>
<path d="
M 165.7,133.121 L 165.788,133.11 L 165.875,133.091 L 165.961,133.066 L 166.045,133.034 L 166.126,132.996
 L 166.205,132.951 L 166.28,132.901 L 166.352,132.843 L 166.42,132.78 L 166.483,132.71 L 166.541,132.635
 L 166.556,132.612 L 166.56,132.607 L 184.21,101.887 L 184.267,101.769 L 184.314,101.648 L 184.352,101.526
 L 184.382,101.402 L 184.402,101.278 L 184.413,101.153 L 184.416,101.028 L 184.41,100.904 L 184.395,100.781
 L 184.372,100.659 L 184.341,100.539 L 184.301,100.421 L 184.253,100.306 L 184.198,100.195 L 184.134,100.087
 L 184.062,99.9829 L 183.983,99.8839 L 183.896,99.7899 L 183.802,99.7014 L 183.7,99.619 L 158.264,84.9026
 L 158.206,84.8497 L 158.15,84.7952 L 158.096,84.739 L 158.044,84.6812 L 157.994,84.6219 L 157.945,84.5611
 L 157.899,84.4989 L 157.855,84.4353 L 157.812,84.3704 L 157.772,84.3042 L 157.734,84.2367 L 157.698,84.1681
 L 157.665,84.0984 L 157.633,84.0275 L 157.604,83.9557 L 157.577,83.8828 L 157.552,83.8091 L 157.53,83.7344
 L 157.51,83.659 L 157.492,83.5827 L 157.492,40.5255 L 157.493,18.8442 L 157.493,17.1984 L 157.491,17.1437
 L 157.484,17.0902 L 157.474,17.0381 L 157.459,16.9876 L 157.441,16.9388 L 157.419,16.8919 L 157.393,16.8471
 L 157.365,16.8045 L 157.333,16.7643 L 157.298,16.7268 L 157.26,16.692 L 157.22,16.6601 L 157.178,16.6313
 L 157.133,16.6059 L 157.086,16.5838 L 157.037,16.5654 L 156.986,16.5508 L 156.934,16.5401 L 156.881,16.5336
 L 156.826,16.5314 L 132.825,16.5314 L 132.77,16.5292 L 132.716,16.5227 L 132.664,16.512 L 132.614,16.4974
 L 132.565,16.479 L 132.518,16.457 L 132.473,16.4315 L 132.431,16.4027 L 132.391,16.3709 L 132.353,16.3361
 L 132.319,16.2985 L 132.287,16.2584 L 132.258,16.2159 L 132.232,16.1711 L 132.21,16.1242 L 132.192,16.0755
 L 132.177,16.025 L 132.167,15.9729 L 132.16,15.9195 L 132.158,15.8649 L 132.158,13.8644 L 132.156,13.8098
 L 132.149,13.7564 L 132.139,13.7043 L 132.124,13.6538 L 132.106,13.6051 L 132.084,13.5582 L 132.058,13.5134
 L 132.029,13.4709 L 131.998,13.4308 L 131.963,13.3932 L 131.925,13.3584 L 131.885,13.3266 L 131.842,13.2978
 L 131.798,13.2723 L 131.751,13.2503 L 131.702,13.2319 L 131.651,13.2173 L 131.599,13.2066 L 131.546,13.2001
 L 131.491,13.1979 L 107.489,13.1979 L 107.434,13.1957 L 107.381,13.1892 L 107.329,13.1785 L 107.279,13.1639
 L 107.23,13.1455 L 107.183,13.1234 L 107.138,13.0979 L 107.096,13.0692 L 107.055,13.0373 L 107.018,13.0025
 L 106.983,12.965 L 106.951,12.9248 L 106.923,12.8822 L 106.897,12.8374 L 106.875,12.7905 L 106.857,12.7417
 L 106.842,12.6912 L 106.831,12.6391 L 106.825,12.5856 L 106.823,12.5309 L 106.823,10.8644 L 106.82,10.8097
 L 106.814,10.7562 L 106.803,10.7041 L 106.789,10.6536 L 106.77,10.6048 L 106.748,10.5579 L 106.723,10.5131
 L 106.694,10.4705 L 106.662,10.4303 L 106.627,10.3928 L 106.59,10.358 L 106.55,10.3261 L 106.507,10.2973
 L 106.462,10.2719 L 106.416,10.2498 L 106.367,10.2314 L 106.316,10.2168 L 106.264,10.2061 L 106.211,10.1996
 L 106.156,10.1974 L 83.488,10.1974 L 83.4333,10.1996 L 83.3798,10.2061 L 83.3277,10.2168 L 83.2772,10.2314
 L 83.2284,10.2498 L 83.1815,10.2719 L 83.1367,10.2973 L 83.0941,10.3261 L 83.0539,10.358 L 83.0164,10.3928
 L 82.9816,10.4303 L 82.9497,10.4705 L 82.9209,10.5131 L 82.8954,10.5579 L 82.8734,10.6048 L 82.855,10.6536
 L 82.8404,10.7041 L 82.8297,10.7562 L 82.8232,10.8097 L 82.821,10.8644 L 82.821,12.5309 L 82.8188,12.5856
 L 82.8123,12.6391 L 82.8016,12.6912 L 82.787,12.7417 L 82.7686,12.7905 L 82.7465,12.8374 L 82.7211,12.8822
 L 82.6923,12.9248 L 82.6605,12.965 L 82.6257,13.0025 L 82.5881,13.0373 L 82.548,13.0692 L 82.5054,13.0979
 L 82.4606,13.1234 L 82.4138,13.1455 L 82.365,13.1639 L 82.3146,13.1785 L 82.2625,13.1892 L 82.2091,13.1957
 L 82.1545,13.1979 L 58.1524,13.1979 L 58.0977,13.2001 L 58.0443,13.2066 L 57.9922,13.2173 L 57.9417,13.2319
 L 57.8929,13.2503 L 57.846,13.2723 L 57.8012,13.2978 L 57.7587,13.3266 L 57.7186,13.3584 L 57.681,13.3932
 L 57.6463,13.4308 L 57.6144,13.4709 L 57.5857,13.5134 L 57.5603,13.5582 L 57.5383,13.6051 L 57.5199,13.6538
 L 57.5053,13.7043 L 57.4946,13.7564 L 57.4881,13.8098 L 57.4859,13.8644 L 57.4859,18.8649 L 57.4837,18.9196
 L 57.4772,18.9731 L 57.4665,19.0252 L 57.4519,19.0757 L 57.4335,19.1245 L 57.4115,19.1714 L 57.386,19.2162
 L 57.3572,19.2588 L 57.3254,19.299 L 57.2906,19.3365 L 57.253,19.3713 L 57.2129,19.4032 L 57.1703,19.4319
 L 57.1256,19.4574 L 57.0787,19.4795 L 57.03,19.4979 L 56.9795,19.5125 L 56.9274,19.5232 L 56.874,19.5297
 L 56.8194,19.5319 L 7.48224,19.5319 L 7.42755,19.5341 L 7.37408,19.5406 L 7.32201,19.5513 L 7.2715,19.5659
 L 7.22272,19.5842 L 7.17586,19.6063 L 7.13106,19.6317 L 7.08852,19.6604 L 7.0484,19.6923 L 7.01086,19.727
 L 6.9761,19.7646 L 6.94426,19.8047 L 6.91554,19.8472 L 6.89008,19.892 L 6.86807,19.9389 L 6.84969,19.9877
 L 6.83508,20.0382 L 6.82445,20.0903 L 6.81793,20.1437 L 6.81572,20.1984 L 6.81572,93.8702 L 6.81793,93.9249
 L 6.82445,93.9783 L 6.83508,94.0304 L 6.84969,94.081 L 6.86807,94.1298 L 6.89008,94.1767 L 6.91554,94.2215
 L 6.94426,94.2641 L 6.9761,94.3042 L 7.01086,94.3418 L 7.0484,94.3766 L 7.08852,94.4084 L 7.13106,94.4372
 L 7.17586,94.4627 L 7.22272,94.4847 L 7.2715,94.5031 L 7.32201,94.5178 L 7.37408,94.5284 L 7.42755,94.5349
 L 7.48224,94.5372 L 80.821,94.5372 L 80.8474,94.5377 L 80.8738,94.5392 L 80.8999,94.5418 L 80.9259,94.5454
 L 80.9516,94.5501 L 80.9771,94.5557 L 81.0023,94.5623 L 81.0273,94.5698 L 81.0518,94.5784 L 81.076,94.5878
 L 81.0999,94.5983 L 81.1233,94.6096 L 81.1462,94.6219 L 81.1687,94.635 L 81.1907,94.6491 L 81.2122,94.664
 L 81.2331,94.6798 L 81.2535,94.6965 L 81.2732,94.714 L 81.2923,94.7324 L 95.3549,114.005 L 95.3749,114.022
 L 95.3954,114.038 L 95.4162,114.053 L 95.4375,114.068 L 95.4592,114.081 L 95.4813,114.095 L 95.5037,114.107
 L 95.5265,114.119 L 95.5497,114.13 L 95.5731,114.141 L 95.5969,114.15 L 95.621,114.159 L 95.6453,114.168
 L 95.6699,114.175 L 95.6947,114.182 L 95.7198,114.188 L 95.7451,114.193 L 95.7706,114.198 L 95.7962,114.202
 L 95.822,114.205 L 144.88,121.497 L 144.899,121.501 L 144.918,121.504 L 144.937,121.508 L 144.956,121.512
 L 144.975,121.516 L 144.994,121.52 L 145.013,121.524 L 145.032,121.528 L 145.05,121.533 L 145.069,121.538
 L 145.088,121.543 L 145.106,121.548 L 145.125,121.553 L 145.144,121.558 L 145.162,121.564 L 145.18,121.569
 L 145.199,121.575 L 145.217,121.581 L 145.235,121.587 L 145.254,121.593 L 164.92,132.913 L 165,132.965
 L 165.083,133.01 L 165.168,133.047 L 165.255,133.077 L 165.342,133.1 L 165.431,133.116 L 165.521,133.124
 L 165.61,133.126 z
" stroke="black" fill="lightgray" stroke-width="0.5"/>
</svg>
