<?xml version="1.0" standalone="no"?>
<!DOCTYPE svg PUBLIC "-//W3C//DTD SVG 1.1//EN" "http://www.w3.org/Graphics/SVG/1.1/DTD/svg11.dtd">
<svg width="29mm" height="81mm" viewBox="161 16 29 81" xmlns="http://www.w3.org/2000/svg" version="1.1">
<title>OpenSCAD Model</title>
<path d="
M 188.275,96.7111 L 188.356,96.7013 L 188.436,96.6854 L 188.515,96.6635 L 188.591,96.6356 L 188.665,96.602
 L 188.737,96.5628 L 188.805,96.5181 L 188.87,96.4681 L 188.931,96.413 L 188.988,96.3528 L 189.041,96.2878
 L 189.088,96.218 L 189.131,96.1437 L 189.168,96.0649 L 189.173,96.053 L 189.177,96.0409 L 189.182,96.0289
 L 189.187,96.0167 L 189.191,96.0046 L 189.195,95.9923 L 189.199,95.98 L 189.203,95.9677 L 189.207,95.9553
 L 189.21,95.9429 L 189.214,95.9305 L 189.217,95.918 L 189.22,95.9054 L 189.223,95.8929 L 189.226,95.8803
 L 189.229,95.8677 L 189.231,95.8551 L 189.233,95.8424 L 189.235,95.8297 L 189.237,95.817 L 189.237,17.585
 L 189.234,17.5304 L 189.228,17.477 L 189.217,17.425 L 189.203,17.3745 L 189.184,17.3257 L 189.162,17.2789
 L 189.137,17.2341 L 189.108,17.1915 L 189.076,17.1514 L 189.041,17.1138 L 189.004,17.0791 L 188.964,17.0472
 L 188.921,17.0184 L 188.876,16.993 L 188.829,16.9709 L 188.781,16.9525 L 188.73,16.9379 L 188.678,16.9272
 L 188.625,16.9207 L 188.57,16.9185 L 162.475,16.9039 L 162.421,16.9062 L 162.367,16.9128 L 162.315,16.9235
 L 162.265,16.9382 L 162.216,16.9566 L 162.169,16.9787 L 162.124,17.0042 L 162.082,17.033 L 162.041,17.0649
 L 162.004,17.0997 L 161.969,17.1373 L 161.937,17.1775 L 161.908,17.2201 L 161.883,17.2649 L 161.861,17.3118
 L 161.842,17.3606 L 161.828,17.4111 L 161.817,17.4632 L 161.811,17.5167 L 161.808,17.5714 L 161.808,80.7134
 L 161.822,80.8154 L 161.839,80.9124 L 161.86,81.0047 L 161.883,81.0927 L 161.911,81.1766 L 161.941,81.2567
 L 161.974,81.3334 L 162.01,81.407 L 162.05,81.4777 L 162.092,81.5459 L 162.137,81.6118 L 162.185,81.6759
 L 162.236,81.7383 L 162.289,81.7995 L 162.345,81.8596 L 162.403,81.9191 L 162.464,81.9781 L 162.527,82.0371
 L 162.593,82.0963 L 162.661,82.1561 L 187.78,96.6312 L 187.861,96.6617 L 187.944,96.6852 L 188.027,96.7017
 L 188.11,96.7114 L 188.192,96.7145 z
" stroke="black" fill="lightgray" stroke-width="0.5"/>
</svg>
