<?xml version="1.0" standalone="no"?>
<!DOCTYPE svg PUBLIC "-//W3C//DTD SVG 1.1//EN" "http://www.w3.org/Graphics/SVG/1.1/DTD/svg11.dtd">
<svg width="180mm" height="124mm" viewBox="6 6 180 124" xmlns="http://www.w3.org/2000/svg" version="1.1">
<title>OpenSCAD Model</title>
<path d="
M 165.815,129.829 L 165.904,129.817 L 165.991,129.798 L 166.077,129.773 L 166.161,129.742 L 166.242,129.703
 L 166.321,129.659 L 166.396,129.608 L 166.468,129.551 L 166.535,129.487 L 166.598,129.418 L 166.657,129.342
 L 166.671,129.321 L 166.676,129.314 L 184.326,98.5941 L 184.409,98.4542 L 184.489,98.3125 L 184.565,98.1691
 L 184.637,98.024 L 184.706,97.8772 L 184.771,97.7289 L 184.832,97.5792 L 184.89,97.428 L 184.943,97.2755
 L 184.993,97.1218 L 185.039,96.9668 L 185.082,96.8108 L 185.12,96.6537 L 185.154,96.4956 L 185.185,96.3366
 L 185.212,96.1768 L 185.234,96.0162 L 185.253,95.8549 L 185.268,95.693 L 185.279,95.5306 L 185.279,16.9162
 L 185.276,16.8615 L 185.27,16.8081 L 185.259,16.7561 L 185.245,16.7056 L 185.226,16.6568 L 185.204,16.61
 L 185.179,16.5652 L 185.15,16.5227 L 185.118,16.4825 L 185.083,16.445 L 185.046,16.4102 L 185.005,16.3783
 L 184.963,16.3496 L 184.918,16.3241 L 184.871,16.3021 L 184.822,16.2837 L 184.772,16.269 L 184.72,16.2584
 L 184.666,16.2519 L 184.612,16.2496 L 158.276,16.2496 L 158.224,16.2399 L 158.173,16.2267 L 158.123,16.2103
 L 158.074,16.1908 L 158.028,16.1682 L 157.983,16.1428 L 157.94,16.1146 L 157.899,16.0837 L 157.86,16.0504
 L 157.824,16.0146 L 157.789,15.9765 L 157.758,15.9363 L 157.729,15.8941 L 157.702,15.8499 L 157.679,15.804
 L 157.659,15.7563 L 157.641,15.7072 L 157.627,15.6566 L 157.616,15.6047 L 157.609,15.5516 L 157.609,13.9058
 L 157.606,13.8511 L 157.6,13.7976 L 157.589,13.7455 L 157.575,13.695 L 157.556,13.6462 L 157.534,13.5993
 L 157.509,13.5545 L 157.48,13.5119 L 157.448,13.4718 L 157.413,13.4342 L 157.376,13.3994 L 157.336,13.3675
 L 157.293,13.3388 L 157.248,13.3133 L 157.202,13.2912 L 157.153,13.2728 L 157.102,13.2582 L 157.05,13.2475
 L 156.997,13.241 L 156.942,13.2388 L 132.94,13.2388 L 132.886,13.2366 L 132.832,13.2301 L 132.78,13.2194
 L 132.73,13.2048 L 132.681,13.1864 L 132.634,13.1644 L 132.589,13.1389 L 132.547,13.1101 L 132.506,13.0783
 L 132.469,13.0435 L 132.434,13.006 L 132.402,12.9658 L 132.373,12.9233 L 132.348,12.8785 L 132.326,12.8316
 L 132.307,12.7829 L 132.293,12.7324 L 132.282,12.6803 L 132.276,12.6269 L 132.273,12.5723 L 132.273,10.5718
 L 132.271,10.5172 L 132.265,10.4638 L 132.254,10.4117 L 132.239,10.3613 L 132.221,10.3125 L 132.199,10.2656
 L 132.174,10.2208 L 132.145,10.1783 L 132.113,10.1382 L 132.078,10.1006 L 132.041,10.0658 L 132.001,10.034
 L 131.958,10.0052 L 131.913,9.97975 L 131.866,9.95772 L 131.818,9.9393 L 131.767,9.92468 L 131.715,9.91403
 L 131.662,9.9075 L 131.607,9.9053 L 107.605,9.9053 L 107.551,9.90309 L 107.497,9.89656 L 107.445,9.88591
 L 107.395,9.87129 L 107.346,9.85287 L 107.299,9.83084 L 107.254,9.80536 L 107.211,9.7766 L 107.171,9.74472
 L 107.134,9.70992 L 107.099,9.67235 L 107.067,9.6322 L 107.038,9.58961 L 107.013,9.5448 L 106.991,9.49791
 L 106.972,9.44911 L 106.958,9.39857 L 106.947,9.34648 L 106.941,9.293 L 106.938,9.23831 L 106.938,7.57179
 L 106.936,7.51711 L 106.93,7.46362 L 106.919,7.41156 L 106.904,7.36104 L 106.886,7.31227 L 106.864,7.2654
 L 106.839,7.22061 L 106.81,7.17807 L 106.778,7.13795 L 106.743,7.10042 L 106.706,7.06566 L 106.666,7.03381
 L 106.623,7.00508 L 106.578,6.97963 L 106.531,6.95763 L 106.483,6.93924 L 106.432,6.92464 L 106.38,6.91399
 L 106.327,6.90749 L 106.272,6.90527 L 83.6033,6.90527 L 83.5487,6.90749 L 83.4952,6.91399 L 83.4432,6.92464
 L 83.3927,6.93924 L 83.344,6.95763 L 83.2971,6.97963 L 83.2523,7.00508 L 83.2098,7.03381 L 83.1696,7.06566
 L 83.1321,7.10042 L 83.0973,7.13795 L 83.0655,7.17807 L 83.0367,7.22061 L 83.0112,7.2654 L 82.9892,7.31227
 L 82.9708,7.36104 L 82.9562,7.41156 L 82.9455,7.46362 L 82.939,7.51711 L 82.9368,7.57179 L 82.9368,9.23831
 L 82.9346,9.293 L 82.928,9.34648 L 82.9174,9.39857 L 82.9028,9.44911 L 82.8844,9.49791 L 82.8623,9.5448
 L 82.8369,9.58961 L 82.8081,9.6322 L 82.7762,9.67235 L 82.7415,9.70992 L 82.7039,9.74472 L 82.6638,9.7766
 L 82.6212,9.80536 L 82.5764,9.83084 L 82.5296,9.85287 L 82.4808,9.87129 L 82.4303,9.88591 L 82.3783,9.89656
 L 82.3249,9.90309 L 82.2703,9.9053 L 58.2682,9.9053 L 58.2135,9.9075 L 58.16,9.91403 L 58.108,9.92468
 L 58.0575,9.9393 L 58.0087,9.95772 L 57.9618,9.97975 L 57.917,10.0052 L 57.8745,10.034 L 57.8344,10.0658
 L 57.7968,10.1006 L 57.7621,10.1382 L 57.7302,10.1783 L 57.7015,10.2208 L 57.676,10.2656 L 57.654,10.3125
 L 57.6357,10.3613 L 57.621,10.4117 L 57.6104,10.4638 L 57.6039,10.5172 L 57.6017,10.5718 L 57.6017,15.5723
 L 57.5995,15.627 L 57.593,15.6805 L 57.5823,15.7326 L 57.5677,15.7831 L 57.5493,15.8319 L 57.5272,15.8788
 L 57.5018,15.9236 L 57.473,15.9662 L 57.4411,16.0064 L 57.4064,16.0439 L 57.3688,16.0787 L 57.3287,16.1106
 L 57.2861,16.1394 L 57.2413,16.1648 L 57.1945,16.1869 L 57.1457,16.2053 L 57.0953,16.2199 L 57.0432,16.2306
 L 56.9898,16.2371 L 56.9352,16.2393 L 7.59802,16.2393 L 7.54333,16.2415 L 7.48987,16.248 L 7.43779,16.2587
 L 7.38728,16.2733 L 7.3385,16.2917 L 7.29164,16.3137 L 7.24684,16.3391 L 7.2043,16.3678 L 7.16418,16.3997
 L 7.12666,16.4344 L 7.09189,16.472 L 7.06006,16.5121 L 7.03133,16.5546 L 7.00587,16.5994 L 6.98386,16.6463
 L 6.96547,16.6951 L 6.95087,16.7456 L 6.94023,16.7977 L 6.93372,16.8511 L 6.93152,16.9058 L 6.93152,90.5776
 L 6.93372,90.6323 L 6.94023,90.6857 L 6.95087,90.7378 L 6.96547,90.7884 L 6.98386,90.8372 L 7.00587,90.8841
 L 7.03133,90.9289 L 7.06006,90.9715 L 7.09189,91.0116 L 7.12666,91.0492 L 7.16418,91.084 L 7.2043,91.1159
 L 7.24684,91.1446 L 7.29164,91.1701 L 7.3385,91.1921 L 7.38728,91.2106 L 7.43779,91.2252 L 7.48987,91.2358
 L 7.54333,91.2424 L 7.59802,91.2446 L 80.9368,91.2446 L 80.9632,91.2451 L 80.9896,91.2466 L 81.0157,91.2492
 L 81.0417,91.2529 L 81.0674,91.2575 L 81.0929,91.2631 L 81.1181,91.2697 L 81.143,91.2772 L 81.1676,91.2858
 L 81.1918,91.2952 L 81.2157,91.3057 L 81.2391,91.317 L 81.262,91.3293 L 81.2845,91.3424 L 81.3065,91.3565
 L 81.328,91.3714 L 81.3489,91.3872 L 81.3692,91.4039 L 81.389,91.4214 L 81.4081,91.4398 L 95.4707,110.713
 L 95.4907,110.729 L 95.5112,110.745 L 95.532,110.76 L 95.5533,110.775 L 95.575,110.789 L 95.5971,110.802
 L 95.6195,110.815 L 95.6423,110.826 L 95.6655,110.838 L 95.6889,110.848 L 95.7127,110.858 L 95.7368,110.867
 L 95.7611,110.875 L 95.7857,110.883 L 95.8105,110.889 L 95.8356,110.896 L 95.8609,110.901 L 95.8863,110.905
 L 95.912,110.909 L 95.9378,110.912 L 144.996,118.205 L 145.015,118.208 L 145.034,118.212 L 145.053,118.215
 L 145.072,118.219 L 145.091,118.223 L 145.11,118.227 L 145.129,118.231 L 145.147,118.236 L 145.166,118.24
 L 145.185,118.245 L 145.204,118.25 L 145.222,118.255 L 145.241,118.26 L 145.259,118.266 L 145.278,118.271
 L 145.296,118.277 L 145.315,118.283 L 145.333,118.288 L 145.351,118.295 L 145.37,118.301 L 165.036,129.621
 L 165.116,129.673 L 165.199,129.717 L 165.284,129.754 L 165.37,129.784 L 165.458,129.807 L 165.547,129.823
 L 165.637,129.832 L 165.726,129.834 z
" stroke="black" fill="lightgray" stroke-width="0.5"/>
</svg>
