solid OpenSCAD_Model
  facet normal -0.866026 0.5 0
    outer loop
      vertex -3.57624 -1.6 0
      vertex -2.65248 0 2.75
      vertex -2.65248 0 0
    endloop
  endfacet
  facet normal -0.866026 0.5 0
    outer loop
      vertex -2.65248 0 2.75
      vertex -3.57624 -1.6 0
      vertex -3.57624 -1.6 2.75
    endloop
  endfacet
  facet normal -0.866007 -0.500032 0
    outer loop
      vertex -3.5185 1.5 2.49
      vertex -3.57624 1.6 2.75
      vertex -3.57624 1.6 2.49
    endloop
  endfacet
  facet normal -0.866027 -0.499998 -0
    outer loop
      vertex -2.65248 0 2.75
      vertex -3.5185 1.5 2.49
      vertex -2.65248 0 0
    endloop
  endfacet
  facet normal -0.866026 -0.5 -1.66543e-05
    outer loop
      vertex -3.5185 1.5 2.49
      vertex -2.65248 0 2.75
      vertex -3.57624 1.6 2.75
    endloop
  endfacet
  facet normal -0.866027 -0.499998 0
    outer loop
      vertex -3.5185 1.5 0
      vertex -2.65248 0 0
      vertex -3.5185 1.5 2.49
    endloop
  endfacet
  facet normal 0.866026 0.5 0
    outer loop
      vertex -5.42376 -1.6 2.75
      vertex -6.34752 0 0
      vertex -6.34752 0 2.75
    endloop
  endfacet
  facet normal 0.866026 0.5 0
    outer loop
      vertex -6.34752 0 0
      vertex -5.42376 -1.6 2.75
      vertex -5.42376 -1.6 0
    endloop
  endfacet
  facet normal 0 1 -0
    outer loop
      vertex -3.57624 -1.6 0
      vertex -5.42376 -1.6 2.75
      vertex -3.57624 -1.6 2.75
    endloop
  endfacet
  facet normal 0 1 0
    outer loop
      vertex -5.42376 -1.6 2.75
      vertex -3.57624 -1.6 0
      vertex -5.42376 -1.6 0
    endloop
  endfacet
  facet normal 0.866026 -0.5 0
    outer loop
      vertex -6.34752 0 2.75
      vertex -5.42376 1.6 0
      vertex -5.42376 1.6 2.75
    endloop
  endfacet
  facet normal 0.866026 -0.5 0
    outer loop
      vertex -5.42376 1.6 0
      vertex -6.34752 0 2.75
      vertex -6.34752 0 0
    endloop
  endfacet
  facet normal 0 -1 0
    outer loop
      vertex -5.42376 1.6 2.75
      vertex -3.75 1.6 2.49
      vertex -3.57624 1.6 2.75
    endloop
  endfacet
  facet normal 0 -1 0
    outer loop
      vertex -5.42376 1.6 0
      vertex -3.75 1.6 2.49
      vertex -5.42376 1.6 2.75
    endloop
  endfacet
  facet normal 0 -1 -0
    outer loop
      vertex -3.75 1.6 2.49
      vertex -5.42376 1.6 0
      vertex -3.75 1.6 0
    endloop
  endfacet
  facet normal 0 -1 -0
    outer loop
      vertex -3.57624 1.6 2.75
      vertex -3.75 1.6 2.49
      vertex -3.57624 1.6 2.49
    endloop
  endfacet
  facet normal 0 1 -0
    outer loop
      vertex 5.42376 -1.6 0
      vertex 3.57624 -1.6 2.75
      vertex 5.42376 -1.6 2.75
    endloop
  endfacet
  facet normal 0 1 0
    outer loop
      vertex 3.57624 -1.6 2.75
      vertex 5.42376 -1.6 0
      vertex 3.57624 -1.6 0
    endloop
  endfacet
  facet normal -0.866026 0.5 0
    outer loop
      vertex 5.42376 -1.6 0
      vertex 6.34752 0 2.75
      vertex 6.34752 0 0
    endloop
  endfacet
  facet normal -0.866026 0.5 0
    outer loop
      vertex 6.34752 0 2.75
      vertex 5.42376 -1.6 0
      vertex 5.42376 -1.6 2.75
    endloop
  endfacet
  facet normal 0.866026 0.5 0
    outer loop
      vertex 3.57624 -1.6 2.75
      vertex 2.65248 0 0
      vertex 2.65248 0 2.75
    endloop
  endfacet
  facet normal 0.866026 0.5 0
    outer loop
      vertex 2.65248 0 0
      vertex 3.57624 -1.6 2.75
      vertex 3.57624 -1.6 0
    endloop
  endfacet
  facet normal 0.866007 -0.500032 0
    outer loop
      vertex 3.57624 1.6 2.75
      vertex 3.5185 1.5 2.49
      vertex 3.57624 1.6 2.49
    endloop
  endfacet
  facet normal 0.866026 -0.5 -1.66543e-05
    outer loop
      vertex 2.65248 0 2.75
      vertex 3.5185 1.5 2.49
      vertex 3.57624 1.6 2.75
    endloop
  endfacet
  facet normal 0.866027 -0.499998 0
    outer loop
      vertex 2.65248 0 0
      vertex 3.5185 1.5 2.49
      vertex 2.65248 0 2.75
    endloop
  endfacet
  facet normal 0.866027 -0.499998 0
    outer loop
      vertex 3.5185 1.5 2.49
      vertex 2.65248 0 0
      vertex 3.5185 1.5 0
    endloop
  endfacet
  facet normal 0 -1 0
    outer loop
      vertex 3.75 1.6 2.49
      vertex 3.57624 1.6 2.75
      vertex 3.57624 1.6 2.49
    endloop
  endfacet
  facet normal 0 -1 0
    outer loop
      vertex 3.57624 1.6 2.75
      vertex 3.75 1.6 2.49
      vertex 5.42376 1.6 2.75
    endloop
  endfacet
  facet normal 0 -1 0
    outer loop
      vertex 5.42376 1.6 0
      vertex 3.75 1.6 2.49
      vertex 3.75 1.6 0
    endloop
  endfacet
  facet normal 0 -1 0
    outer loop
      vertex 3.75 1.6 2.49
      vertex 5.42376 1.6 0
      vertex 5.42376 1.6 2.75
    endloop
  endfacet
  facet normal -0.866026 -0.5 0
    outer loop
      vertex 6.34752 0 0
      vertex 5.42376 1.6 2.75
      vertex 5.42376 1.6 0
    endloop
  endfacet
  facet normal -0.866026 -0.5 0
    outer loop
      vertex 5.42376 1.6 2.75
      vertex 6.34752 0 0
      vertex 6.34752 0 2.75
    endloop
  endfacet
  facet normal 1 -0 0
    outer loop
      vertex -3.75 1.6 2.49
      vertex -3.75 3.45105 0
      vertex -3.75 3.45105 2.49
    endloop
  endfacet
  facet normal 1 0 0
    outer loop
      vertex -3.75 3.45105 0
      vertex -3.75 1.6 2.49
      vertex -3.75 1.6 0
    endloop
  endfacet
  facet normal 0 1 -0
    outer loop
      vertex 3.5185 1.5 0
      vertex -3.5185 1.5 2.49
      vertex 3.5185 1.5 2.49
    endloop
  endfacet
  facet normal 0 1 0
    outer loop
      vertex -3.5185 1.5 2.49
      vertex 3.5185 1.5 0
      vertex -3.5185 1.5 0
    endloop
  endfacet
  facet normal -1 0 0
    outer loop
      vertex 3.75 1.6 0
      vertex 3.75 3.45105 2.49
      vertex 3.75 3.45105 0
    endloop
  endfacet
  facet normal -1 -0 0
    outer loop
      vertex 3.75 3.45105 2.49
      vertex 3.75 1.6 0
      vertex 3.75 1.6 2.49
    endloop
  endfacet
  facet normal 0 0 -1
    outer loop
      vertex 3.57624 1.6 2.49
      vertex 3.75 3.45105 2.49
      vertex 3.75 1.6 2.49
    endloop
  endfacet
  facet normal 0 0 -1
    outer loop
      vertex 3.5185 1.5 2.49
      vertex 3.75 3.45105 2.49
      vertex 3.57624 1.6 2.49
    endloop
  endfacet
  facet normal 0 0 -1
    outer loop
      vertex -3.5185 1.5 2.49
      vertex 3.75 3.45105 2.49
      vertex 3.5185 1.5 2.49
    endloop
  endfacet
  facet normal 0 0 -1
    outer loop
      vertex -3.75 3.45105 2.49
      vertex -3.5185 1.5 2.49
      vertex -3.57624 1.6 2.49
    endloop
  endfacet
  facet normal 0 0 -1
    outer loop
      vertex -3.75 3.45105 2.49
      vertex -3.57624 1.6 2.49
      vertex -3.75 1.6 2.49
    endloop
  endfacet
  facet normal 0 0 -1
    outer loop
      vertex -3.5185 1.5 2.49
      vertex -3.75 3.45105 2.49
      vertex 3.75 3.45105 2.49
    endloop
  endfacet
  facet normal 0 0 -1
    outer loop
      vertex 5.42376 -1.6 0
      vertex 8 -2.5 0
      vertex 7.30901 -3.45105 0
    endloop
  endfacet
  facet normal 0 0 -1
    outer loop
      vertex 8 -2.5 0
      vertex 6.34752 0 0
      vertex 8 2.5 0
    endloop
  endfacet
  facet normal 0 0 -1
    outer loop
      vertex 5.42376 1.6 0
      vertex 8 2.5 0
      vertex 6.34752 0 0
    endloop
  endfacet
  facet normal 0 0 -1
    outer loop
      vertex 8 -2.5 0
      vertex 5.42376 -1.6 0
      vertex 6.34752 0 0
    endloop
  endfacet
  facet normal 0 0 -1
    outer loop
      vertex 7.30901 -3.45105 0
      vertex 3.57624 -1.6 0
      vertex 5.42376 -1.6 0
    endloop
  endfacet
  facet normal 0 0 -1
    outer loop
      vertex 3.57624 -1.6 0
      vertex -2.65248 0 0
      vertex 2.65248 0 0
    endloop
  endfacet
  facet normal 0 0 -1
    outer loop
      vertex -6.69099 -3.45105 0
      vertex 3.57624 -1.6 0
      vertex 7.30901 -3.45105 0
    endloop
  endfacet
  facet normal 0 0 -1
    outer loop
      vertex 3.57624 -1.6 0
      vertex -3.57624 -1.6 0
      vertex -2.65248 0 0
    endloop
  endfacet
  facet normal -0 0 -1
    outer loop
      vertex 3.57624 -1.6 0
      vertex -6.69099 -3.45105 0
      vertex -3.57624 -1.6 0
    endloop
  endfacet
  facet normal 0 0 -1
    outer loop
      vertex -7.80901 -3.08778 0
      vertex -5.42376 -1.6 0
      vertex -6.69099 -3.45105 0
    endloop
  endfacet
  facet normal -0 0 -1
    outer loop
      vertex -3.57624 -1.6 0
      vertex -6.69099 -3.45105 0
      vertex -5.42376 -1.6 0
    endloop
  endfacet
  facet normal -0 0 -1
    outer loop
      vertex 8 2.5 0
      vertex 5.42376 1.6 0
      vertex 7.30901 3.45105 0
    endloop
  endfacet
  facet normal 0 0 -1
    outer loop
      vertex 3.75 3.45105 0
      vertex 5.42376 1.6 0
      vertex 3.75 1.6 0
    endloop
  endfacet
  facet normal 0 0 -1
    outer loop
      vertex 5.42376 1.6 0
      vertex 3.75 3.45105 0
      vertex 7.30901 3.45105 0
    endloop
  endfacet
  facet normal 0 0 -1
    outer loop
      vertex -2.65248 0 0
      vertex 3.5185 1.5 0
      vertex 2.65248 0 0
    endloop
  endfacet
  facet normal -0 0 -1
    outer loop
      vertex 3.5185 1.5 0
      vertex -2.65248 0 0
      vertex -3.5185 1.5 0
    endloop
  endfacet
  facet normal 0 0 -1
    outer loop
      vertex -5.42376 1.6 0
      vertex -3.75 3.45105 0
      vertex -3.75 1.6 0
    endloop
  endfacet
  facet normal 0 0 -1
    outer loop
      vertex -5.42376 1.6 0
      vertex -6.69099 3.45105 0
      vertex -3.75 3.45105 0
    endloop
  endfacet
  facet normal 0 0 -1
    outer loop
      vertex -7.80901 3.08778 0
      vertex -5.42376 1.6 0
      vertex -6.34752 0 0
    endloop
  endfacet
  facet normal -0 0 -1
    outer loop
      vertex -5.42376 -1.6 0
      vertex -7.80901 -3.08778 0
      vertex -6.34752 0 0
    endloop
  endfacet
  facet normal 0 0 -1
    outer loop
      vertex -7.80901 3.08778 0
      vertex -6.34752 0 0
      vertex -7.80901 -3.08778 0
    endloop
  endfacet
  facet normal 0 0 -1
    outer loop
      vertex -5.42376 1.6 0
      vertex -7.80901 3.08778 0
      vertex -6.69099 3.45105 0
    endloop
  endfacet
  facet normal -0.30902 -0.951056 0
    outer loop
      vertex -7.80901 -3.08778 0
      vertex -6.69099 -3.45105 2.75
      vertex -7.80901 -3.08778 2.75
    endloop
  endfacet
  facet normal -0.30902 -0.951056 -0
    outer loop
      vertex -6.69099 -3.45105 2.75
      vertex -7.80901 -3.08778 0
      vertex -6.69099 -3.45105 0
    endloop
  endfacet
  facet normal -0.30902 0.951056 0
    outer loop
      vertex -6.69099 3.45105 0
      vertex -7.80901 3.08778 2.75
      vertex -6.69099 3.45105 2.75
    endloop
  endfacet
  facet normal -0.30902 0.951056 0
    outer loop
      vertex -7.80901 3.08778 2.75
      vertex -6.69099 3.45105 0
      vertex -7.80901 3.08778 0
    endloop
  endfacet
  facet normal 1 -0 0
    outer loop
      vertex 8 -2.5 2.75
      vertex 8 2.5 0
      vertex 8 2.5 2.75
    endloop
  endfacet
  facet normal 1 0 0
    outer loop
      vertex 8 2.5 0
      vertex 8 -2.5 2.75
      vertex 8 -2.5 0
    endloop
  endfacet
  facet normal 0 0 1
    outer loop
      vertex 5.42376 1.6 2.75
      vertex 8 2.5 2.75
      vertex 7.30901 3.45105 2.75
    endloop
  endfacet
  facet normal 0 0 1
    outer loop
      vertex 8 2.5 2.75
      vertex 6.34752 0 2.75
      vertex 8 -2.5 2.75
    endloop
  endfacet
  facet normal -0 0 1
    outer loop
      vertex 5.42376 -1.6 2.75
      vertex 8 -2.5 2.75
      vertex 6.34752 0 2.75
    endloop
  endfacet
  facet normal 0 0 1
    outer loop
      vertex 8 2.5 2.75
      vertex 5.42376 1.6 2.75
      vertex 6.34752 0 2.75
    endloop
  endfacet
  facet normal 0 0 1
    outer loop
      vertex 7.30901 3.45105 2.75
      vertex 3.57624 1.6 2.75
      vertex 5.42376 1.6 2.75
    endloop
  endfacet
  facet normal 0 0 1
    outer loop
      vertex 3.57624 1.6 2.75
      vertex -2.65248 0 2.75
      vertex 2.65248 0 2.75
    endloop
  endfacet
  facet normal -0 0 1
    outer loop
      vertex -6.69099 3.45105 2.75
      vertex 3.57624 1.6 2.75
      vertex 7.30901 3.45105 2.75
    endloop
  endfacet
  facet normal 0 0 1
    outer loop
      vertex 3.57624 1.6 2.75
      vertex -3.57624 1.6 2.75
      vertex -2.65248 0 2.75
    endloop
  endfacet
  facet normal 0 0 1
    outer loop
      vertex 3.57624 1.6 2.75
      vertex -6.69099 3.45105 2.75
      vertex -3.57624 1.6 2.75
    endloop
  endfacet
  facet normal -0 0 1
    outer loop
      vertex -7.80901 3.08778 2.75
      vertex -5.42376 1.6 2.75
      vertex -6.69099 3.45105 2.75
    endloop
  endfacet
  facet normal 0 0 1
    outer loop
      vertex -3.57624 1.6 2.75
      vertex -6.69099 3.45105 2.75
      vertex -5.42376 1.6 2.75
    endloop
  endfacet
  facet normal 0 0 1
    outer loop
      vertex 8 -2.5 2.75
      vertex 5.42376 -1.6 2.75
      vertex 7.30901 -3.45105 2.75
    endloop
  endfacet
  facet normal -0 0 1
    outer loop
      vertex 3.57624 -1.6 2.75
      vertex 7.30901 -3.45105 2.75
      vertex 5.42376 -1.6 2.75
    endloop
  endfacet
  facet normal -0 0 1
    outer loop
      vertex -2.65248 0 2.75
      vertex 3.57624 -1.6 2.75
      vertex 2.65248 0 2.75
    endloop
  endfacet
  facet normal 0 0 1
    outer loop
      vertex -3.57624 -1.6 2.75
      vertex 3.57624 -1.6 2.75
      vertex -2.65248 0 2.75
    endloop
  endfacet
  facet normal 0 0 1
    outer loop
      vertex -6.69099 -3.45105 2.75
      vertex 3.57624 -1.6 2.75
      vertex -3.57624 -1.6 2.75
    endloop
  endfacet
  facet normal 0 0 1
    outer loop
      vertex -6.69099 -3.45105 2.75
      vertex -3.57624 -1.6 2.75
      vertex -5.42376 -1.6 2.75
    endloop
  endfacet
  facet normal 0 0 1
    outer loop
      vertex 3.57624 -1.6 2.75
      vertex -6.69099 -3.45105 2.75
      vertex 7.30901 -3.45105 2.75
    endloop
  endfacet
  facet normal 0 0 1
    outer loop
      vertex -7.80901 -3.08778 2.75
      vertex -5.42376 -1.6 2.75
      vertex -6.34752 0 2.75
    endloop
  endfacet
  facet normal 0 0 1
    outer loop
      vertex -5.42376 1.6 2.75
      vertex -7.80901 3.08778 2.75
      vertex -6.34752 0 2.75
    endloop
  endfacet
  facet normal 0 0 1
    outer loop
      vertex -7.80901 -3.08778 2.75
      vertex -6.34752 0 2.75
      vertex -7.80901 3.08778 2.75
    endloop
  endfacet
  facet normal 0 0 1
    outer loop
      vertex -5.42376 -1.6 2.75
      vertex -7.80901 -3.08778 2.75
      vertex -6.69099 -3.45105 2.75
    endloop
  endfacet
  facet normal -1 0 0
    outer loop
      vertex -7.80901 -3.08778 0
      vertex -7.80901 3.08778 2.75
      vertex -7.80901 3.08778 0
    endloop
  endfacet
  facet normal -1 -0 0
    outer loop
      vertex -7.80901 3.08778 2.75
      vertex -7.80901 -3.08778 0
      vertex -7.80901 -3.08778 2.75
    endloop
  endfacet
  facet normal 0.809012 0.587792 0
    outer loop
      vertex 8 2.5 2.75
      vertex 7.30901 3.45105 0
      vertex 7.30901 3.45105 2.75
    endloop
  endfacet
  facet normal 0.809012 0.587792 0
    outer loop
      vertex 7.30901 3.45105 0
      vertex 8 2.5 2.75
      vertex 8 2.5 0
    endloop
  endfacet
  facet normal 0 -1 0
    outer loop
      vertex -6.69099 -3.45105 0
      vertex 7.30901 -3.45105 2.75
      vertex -6.69099 -3.45105 2.75
    endloop
  endfacet
  facet normal 0 -1 -0
    outer loop
      vertex 7.30901 -3.45105 2.75
      vertex -6.69099 -3.45105 0
      vertex 7.30901 -3.45105 0
    endloop
  endfacet
  facet normal 0 1 0
    outer loop
      vertex 7.30901 3.45105 2.75
      vertex 3.75 3.45105 2.49
      vertex -6.69099 3.45105 2.75
    endloop
  endfacet
  facet normal 0 1 -0
    outer loop
      vertex 7.30901 3.45105 0
      vertex 3.75 3.45105 2.49
      vertex 7.30901 3.45105 2.75
    endloop
  endfacet
  facet normal 0 1 0
    outer loop
      vertex 3.75 3.45105 2.49
      vertex 7.30901 3.45105 0
      vertex 3.75 3.45105 0
    endloop
  endfacet
  facet normal 0 1 -0
    outer loop
      vertex -3.75 3.45105 2.49
      vertex -6.69099 3.45105 2.75
      vertex 3.75 3.45105 2.49
    endloop
  endfacet
  facet normal 0 1 0
    outer loop
      vertex -6.69099 3.45105 0
      vertex -3.75 3.45105 2.49
      vertex -3.75 3.45105 0
    endloop
  endfacet
  facet normal 0 1 0
    outer loop
      vertex -3.75 3.45105 2.49
      vertex -6.69099 3.45105 0
      vertex -6.69099 3.45105 2.75
    endloop
  endfacet
  facet normal 0.809012 -0.587792 0
    outer loop
      vertex 7.30901 -3.45105 2.75
      vertex 8 -2.5 0
      vertex 8 -2.5 2.75
    endloop
  endfacet
  facet normal 0.809012 -0.587792 0
    outer loop
      vertex 8 -2.5 0
      vertex 7.30901 -3.45105 2.75
      vertex 7.30901 -3.45105 0
    endloop
  endfacet
endsolid OpenSCAD_Model
